<?xml version="1.0" standalone="no"?>
<!DOCTYPE svg PUBLIC "-//W3C//DTD SVG 20010904//EN"
 "http://www.w3.org/TR/2001/REC-SVG-20010904/DTD/svg10.dtd">
<svg version="1.0" xmlns="http://www.w3.org/2000/svg"
 width="1024.000000pt" height="538.000000pt" viewBox="0 0 1024.000000 538.000000"
 preserveAspectRatio="xMidYMid meet">
<metadata>
Created by potrace 1.16, written by Peter Selinger 2001-2019
</metadata>
<g transform="translate(0.000000,538.000000) scale(0.100000,-0.100000)"
fill="#000000" stroke="none">
<path d="M3775 4898 c-27 -3 -94 -11 -148 -17 -145 -16 -310 -73 -452 -156
-127 -74 -312 -237 -388 -342 -17 -24 -34 -43 -39 -43 -4 0 -8 -4 -8 -10 0 -5
-18 -38 -39 -73 -36 -59 -108 -215 -121 -262 -23 -85 -48 -183 -48 -195 0 -8
-4 -40 -9 -70 -16 -109 -5 -409 16 -449 7 -13 25 -88 35 -146 6 -34 77 -201
135 -320 129 -260 299 -483 592 -774 120 -120 348 -330 468 -431 29 -25 64
-54 76 -65 69 -60 132 -113 166 -137 22 -16 39 -33 39 -38 0 -6 5 -10 11 -10
6 0 34 -19 62 -42 29 -24 59 -48 67 -55 28 -22 254 -205 295 -238 22 -18 92
-75 155 -125 63 -51 120 -98 125 -104 6 -6 28 -24 50 -41 22 -16 100 -83 174
-147 74 -65 139 -118 145 -118 6 0 79 55 161 121 83 67 173 138 200 159 28 20
68 53 90 73 22 20 43 37 47 37 4 0 15 8 25 18 10 10 99 83 198 162 99 79 209
168 245 197 36 30 70 58 77 63 60 48 201 167 214 179 9 9 27 25 40 36 417 356
752 713 963 1025 69 102 197 355 211 417 8 32 39 119 46 129 5 6 11 26 13 45
3 20 14 73 26 119 27 106 33 165 34 315 0 150 -7 205 -40 330 -14 55 -27 105
-28 110 -1 6 -10 27 -19 49 -9 21 -17 47 -17 56 0 10 -4 20 -8 22 -4 2 -27 38
-49 80 -124 230 -336 433 -572 548 -42 20 -97 42 -123 50 -27 7 -48 17 -48 22
0 5 -3 7 -8 4 -4 -2 -34 2 -66 9 -52 12 -257 38 -296 37 -63 -1 -209 -29 -280
-54 -109 -38 -322 -157 -365 -204 -5 -6 -32 -28 -58 -49 -51 -41 -328 -336
-367 -391 -8 -12 -42 -58 -75 -101 -34 -44 -85 -121 -115 -171 -30 -50 -58
-90 -62 -89 -4 1 -33 44 -65 94 -106 169 -266 376 -393 510 -42 45 -80 88 -83
97 -4 9 -11 16 -18 16 -6 0 -34 19 -62 43 -53 44 -63 51 -155 112 -64 42 -222
125 -239 125 -7 0 -13 4 -13 8 0 4 -8 8 -17 9 -10 1 -49 9 -88 17 -126 27
-169 31 -220 24z"/>
</g>
</svg>
