<svg width="1080" height="1080" viewBox="0 0 1080 1080" fill="none" xmlns="http://www.w3.org/2000/svg">
<rect width="1080" height="1080" fill="white"/>
<g clip-path="url(#clip0)">
<path d="M968 690.971H113" stroke="black" stroke-miterlimit="10"/>
<path d="M396.748 211H191.883C153.264 211 121.957 242.29 121.957 280.887V339.801C121.957 378.399 153.264 409.688 191.883 409.688H396.748C435.367 409.688 466.673 378.399 466.673 339.801V280.887C466.673 242.29 435.367 211 396.748 211Z" fill="black"/>
<path d="M396.748 442.033H191.883C153.264 442.033 121.957 473.323 121.957 511.92V570.834C121.957 609.432 153.264 640.721 191.883 640.721H396.748C435.367 640.721 466.673 609.432 466.673 570.834V511.92C466.673 473.323 435.367 442.033 396.748 442.033Z" fill="black"/>
<path d="M860.222 211H655.357C616.739 211 585.432 242.29 585.432 280.887V339.801C585.432 378.399 616.739 409.688 655.357 409.688H860.222C898.841 409.688 930.148 378.399 930.148 339.801V280.887C930.148 242.29 898.841 211 860.222 211Z" fill="black"/>
<path d="M860.222 442.033H655.357C616.739 442.033 585.432 473.323 585.432 511.92V570.834C585.432 609.432 616.739 640.721 655.357 640.721H860.222C898.841 640.721 930.148 609.432 930.148 570.834V511.92C930.148 473.323 898.841 442.033 860.222 442.033Z" fill="black"/>
<path d="M531.109 760.859L572.429 828.147L596.989 868H465.518L531.398 760.859" fill="black"/>
</g>
<defs>
<clipPath id="clip0">
<rect width="855" height="657" fill="white" transform="translate(113 211)"/>
</clipPath>
</defs>
</svg>
