<svg width="24" height="24" viewBox="0 0 24 24" fill="none" xmlns="http://www.w3.org/2000/svg">
<g clip-path="url(#clip0)">
<path d="M9.42657 1.3719e-07C11.2186 -0.000305496 12.9735 0.510063 14.4859 1.47131C15.9982 2.43256 17.2053 3.80489 17.9657 5.42751C18.7261 7.05013 19.0084 8.85584 18.7794 10.6331C18.5504 12.4104 17.8197 14.0856 16.6728 15.4625L23.7476 22.5354C23.8995 22.6866 23.9892 22.8892 23.9991 23.1032C24.009 23.3173 23.9384 23.5273 23.8011 23.6918C23.6639 23.8564 23.47 23.9636 23.2576 23.9923C23.0453 24.021 22.8299 23.9691 22.6539 23.8468L22.5339 23.7491L15.4608 16.6744C14.2972 17.6431 12.9173 18.3174 11.438 18.64C9.9587 18.9627 8.42343 18.9244 6.96206 18.5284C5.50069 18.1323 4.1562 17.3901 3.04231 16.3646C1.92841 15.3391 1.07789 14.0604 0.562667 12.6366C0.0474447 11.2129 -0.117318 9.68608 0.0823145 8.18522C0.281947 6.68437 0.840102 5.25367 1.70957 4.01412C2.57904 2.77458 3.73425 1.76266 5.07748 1.06396C6.42072 0.365252 7.91247 0.000310273 9.42657 1.3719e-07V1.3719e-07ZM9.42657 1.71424C7.38063 1.71424 5.41848 2.52698 3.97179 3.97365C2.52509 5.42032 1.71234 7.38243 1.71234 9.42834C1.71234 11.4742 2.52509 13.4364 3.97179 14.883C5.41848 16.3297 7.38063 17.1424 9.42657 17.1424C11.4725 17.1424 13.4346 16.3297 14.8813 14.883C16.328 13.4364 17.1408 11.4742 17.1408 9.42834C17.1408 7.38243 16.328 5.42032 14.8813 3.97365C13.4346 2.52698 11.4725 1.71424 9.42657 1.71424Z" fill="black"/>
</g>
<defs>
<clipPath id="clip0">
<rect width="24" height="24" fill="white"/>
</clipPath>
</defs>
</svg>
