<?xml version="1.0" standalone="no"?>
<!DOCTYPE svg PUBLIC "-//W3C//DTD SVG 20010904//EN"
 "http://www.w3.org/TR/2001/REC-SVG-20010904/DTD/svg10.dtd">
<svg version="1.0" xmlns="http://www.w3.org/2000/svg"
 width="340.000000pt" height="340.000000pt" viewBox="0 0 340.000000 340.000000"
 preserveAspectRatio="xMidYMid meet">
    <metadata>Created by potrace 1.16, written by Peter Selinger 2001-2019</metadata>
    <g transform="translate(0.000000,340.000000) scale(0.100000,-0.100000)"fill="#000000" stroke="none">
        <path d="M1149 3110 c-140 -17 -288 -70 -402 -143 -63 -41 -78 -42 -20 -2 21 14 34 25 30 25 -13 0 -76 -45 -79 -56 -4 -14 -163 -164 -174 -164 -5 0 -15 -10 -23 -22 l-14 -23 24 20 24 20 -19 -22 c-11 -13 -24 -23 -31 -23 -6 0 -32 -35 -58 -77 -52 -87 -74 -139 -55 -127 8 5 9 2 5 -10 -4 -10 -7 -20 -7 -22 0 -3 -4 -3 -9 0 -10 7 -36 -53 -45 -104 -3 -19 4 -6 15 29 30 92 31 71 2 -39 -33 -125 -36 -332 -5 -452 10 -43 15 -75 11 -72 -5 3 -9 15 -9 26 0 12 -3 19 -6 15 -9 -9 7 -68 17 -61 5 3 14 -7 19 -21 14 -37 12 -44 -5 -15 -19 33 -19 21 0 -24 9 -20 20 -34 25 -31 6 4 7 -1 3 -11 -5 -13 -3 -15 7 -9 8 5 11 4 7 -2 -8 -13 18 -79 35 -89 10 -6 11 -4 1 7 -7 7 -13 17 -13 23 0 5 6 1 14 -9 7 -10 11 -27 8 -37 -2 -10 1 -18 7 -18 7 0 9 5 6 10 -3 6 -4 10 -2 10 2 0 20 -24 40 -52 33 -49 249 -268 263 -268 3 0 -4 9 -17 21 -23 20 -23 20 8 -1 67 -44 222 -110 309 -132 70 -17 119 -22 229 -22 162 0 266 21 392 79 41 19 80 32 86 28 5 -3 8 -2 5 3 -3 5 22 26 55 47 33 21 57 32 55 25 -3 -7 219 -236 509 -525 282 -282 513 -508 513 -501 0 6 9 3 21 -8 23 -20 98 -26 133 -10 15 7 17 6 11 -4 -5 -9 -4 -11 4 -6 6 4 9 11 6 16 -3 5 -1 11 5 15 5 3 10 1 10 -6 0 -16 28 8 41 35 9 18 7 18 -10 -3 -27 -30 -27 -22 0 24 16 27 20 46 16 75 -3 26 -2 38 5 34 6 -4 9 -1 6 7 -3 8 -10 14 -15 14 -6 0 -15 4 -20 9 -5 5 -3 6 5 2 6 -4 12 -5 12 -2 0 14 -1043 1045 -1052 1040 -7 -4 -8 -2 -4 4 4 7 13 12 19 12 7 0 18 10 26 22 36 57 58 104 54 115 -2 6 5 29 17 50 12 21 18 29 15 18 -4 -12 -3 -16 3 -10 13 15 42 93 41 113 0 9 -7 -5 -15 -32 -25 -80 -23 -47 3 54 42 163 41 327 -3 510 -4 20 -3 22 5 10 14 -19 14 0 1 35 -5 14 -13 24 -18 21 -4 -2 -22 27 -39 66 -21 45 -26 65 -16 56 12 -9 10 -2 -6 30 -12 23 -26 40 -31 37 -5 -3 -12 0 -16 6 -5 8 -3 9 6 4 8 -5 11 -3 8 6 -3 8 -10 14 -15 14 -6 0 -15 4 -20 9 -5 5 -3 6 5 2 6 -4 12 -2 12 3 0 6 -6 11 -14 11 -7 0 -20 8 -27 18 -13 16 -13 16 5 2 18 -13 19 -13 11 0 -19 32 -92 112 -130 142 -28 21 -19 9 30 -43 l70 -74 -85 80 c-85 79 -110 104 -88 85 7 -5 17 -10 22 -10 16 1 -27 24 -44 25 -8 0 -13 7 -12 15 2 8 0 12 -4 8 -4 -4 -13 0 -21 10 -8 9 -11 11 -8 4 6 -11 3 -12 -14 -2 -12 6 -19 15 -16 20 3 5 -3 14 -14 19 -30 16 -40 12 -11 -4 45 -25 15 -16 -65 21 -152 70 -365 104 -526 84z m326 -280 c117 -37 200 -86 289 -174 44 -44 68 -69 51 -56 l-30 25 20 -25 c11 -13 23 -29 28 -35 4 -5 16 -21 28 -35 l20 -25 -17 30 -16 30 20 -24 c11 -14 18 -30 15 -37 -7 -18 26 -76 39 -68 7 4 8 3 4 -5 -9 -14 2 -53 14 -46 13 8 31 -56 25 -94 -4 -25 -3 -30 3 -16 7 16 10 12 15 -20 17 -99 2 -302 -24 -329 -5 -5 -4 6 1 25 6 18 10 45 9 59 0 14 -7 -2 -14 -35 -7 -33 -16 -68 -20 -77 -4 -11 -3 -18 4 -18 6 0 8 -7 5 -15 -3 -8 -11 -13 -16 -12 -6 1 -13 -4 -16 -12 -3 -8 0 -11 7 -7 7 5 8 0 2 -16 -4 -13 -14 -23 -20 -23 -12 0 -31 -23 -31 -39 0 -6 7 -1 16 10 11 13 10 8 -3 -16 -11 -19 -25 -35 -33 -35 -7 0 -15 -6 -18 -14 -3 -9 0 -11 9 -5 12 7 12 5 0 -9 -7 -9 -17 -15 -21 -12 -8 5 -75 -64 -83 -86 -3 -9 -20 -26 -39 -39 l-33 -22 35 32 35 32 -33 -22 c-17 -12 -36 -29 -41 -39 -14 -25 -131 -79 -219 -102 -92 -23 -237 -25 -337 -4 -83 18 -256 101 -269 130 -5 11 -20 29 -35 39 l-26 19 24 -26 c49 -54 13 -25 -49 40 -36 37 -52 56 -36 43 l29 -25 -19 26 c-10 15 -28 30 -39 35 -13 6 -19 17 -17 30 1 12 -5 27 -14 35 -16 13 -16 12 -4 -11 10 -20 10 -23 0 -13 -7 7 -13 25 -14 40 -1 18 -6 27 -14 25 -8 -1 -11 2 -7 8 10 16 -24 107 -41 114 -12 5 -14 16 -10 49 4 26 3 35 -2 22 -7 -16 -10 -12 -15 20 -17 103 2 289 31 313 10 8 12 12 3 12 -7 0 -9 5 -6 10 4 6 11 8 16 5 5 -4 9 -1 9 4 0 6 -4 11 -10 11 -5 0 -7 7 -4 15 3 8 11 13 16 12 6 -1 13 4 16 12 3 8 0 11 -7 7 -13 -9 -14 4 -1 24 8 13 10 13 10 1 0 -8 15 10 33 40 18 30 37 61 42 69 8 13 7 13 -11 0 -18 -14 -18 -14 -5 3 7 9 17 17 21 17 10 0 120 111 120 121 0 15 102 77 170 105 101 41 181 54 305 49 75 -2 132 -11 180 -25z"/>
</g>
</svg>
