<svg width="1080" height="1080" viewBox="0 0 1080 1080" fill="none" xmlns="http://www.w3.org/2000/svg">
<rect width="1080" height="1080" fill="white"/>
<g clip-path="url(#clip0)">
<path d="M127 689.812V392.634C128.562 346.727 147.818 303.202 180.74 271.166C213.662 239.13 257.699 221.063 303.638 220.747C349.577 220.432 393.859 237.89 427.218 269.471C460.578 301.051 480.431 344.307 482.625 390.188H599.128C599.288 366.981 604.019 344.033 613.049 322.655C622.08 301.276 635.233 281.885 651.759 265.589C668.285 249.293 687.859 236.411 709.363 227.678C730.868 218.946 753.883 214.534 777.093 214.694C800.303 214.855 823.254 219.585 844.636 228.614C866.018 237.643 885.411 250.795 901.71 267.318C918.008 283.841 930.892 303.413 939.626 324.914C948.36 346.416 952.772 369.427 952.612 392.634V689.812C952.612 736.599 934.023 781.47 900.935 814.553C867.846 847.637 822.969 866.223 776.175 866.223C729.382 866.223 684.504 847.637 651.416 814.553C618.328 781.47 599.739 736.599 599.739 689.812V578.523H482.625V689.812C480.721 735.688 461.156 779.053 428.017 810.841C394.879 842.628 350.735 860.378 304.812 860.378C258.89 860.378 214.745 842.628 181.607 810.841C148.469 779.053 128.903 735.688 127 689.812H127ZM638.879 687.06C638.55 723.451 652.59 758.503 677.952 784.605C703.314 810.708 737.95 825.754 774.341 826.477C792.135 826.64 809.783 823.256 826.255 816.523C842.727 809.79 857.691 799.842 870.274 787.26C882.857 774.679 892.806 759.717 899.541 743.248C906.275 726.778 909.66 709.132 909.496 691.341C910.012 673.532 906.735 655.816 899.882 639.371C893.028 622.925 882.755 608.124 869.745 595.95C857.283 583.304 842.431 573.262 826.053 566.408C809.674 559.553 792.096 556.023 774.341 556.023C756.585 556.023 739.007 559.553 722.629 566.408C706.25 573.262 691.398 583.304 678.937 595.95C654.835 620.611 640.588 653.234 638.879 687.672V687.06ZM169.504 687.06C168.468 705.347 171.152 723.653 177.394 740.873C183.636 758.092 193.306 773.867 205.82 787.243C218.333 800.619 233.43 811.319 250.197 818.694C266.964 826.07 285.054 829.969 303.371 830.155C321.688 830.342 339.853 826.811 356.767 819.778C373.681 812.745 388.992 802.354 401.775 789.235C414.558 776.117 424.547 760.542 431.138 743.453C437.729 726.364 440.785 708.116 440.121 689.812C440.559 672.013 437.247 654.322 430.398 637.887C423.549 621.452 413.318 606.643 400.369 594.422C387.881 581.766 373.004 571.718 356.6 564.86C340.196 558.001 322.593 554.469 304.812 554.469C287.032 554.469 269.429 558.001 253.025 564.86C236.621 571.718 221.743 581.766 209.255 594.422C196.901 606.329 187.028 620.565 180.205 636.307C173.382 652.05 169.745 668.988 169.504 686.143V687.06Z" fill="black"/>
<path fill-rule="evenodd" clip-rule="evenodd" d="M339.211 583.721C394.864 607.568 437.367 665.964 394.864 721.609L339.211 583.721Z" fill="black"/>
<path fill-rule="evenodd" clip-rule="evenodd" d="M816.846 583.721C872.498 607.568 915.002 665.964 872.498 721.609L816.846 583.721Z" fill="black"/>
</g>
<defs>
<clipPath id="clip0">
<rect width="825" height="650" fill="white" transform="translate(127 215)"/>
</clipPath>
</defs>
</svg>
