<?xml version="1.0" standalone="no"?>
<!DOCTYPE svg PUBLIC "-//W3C//DTD SVG 20010904//EN"
 "http://www.w3.org/TR/2001/REC-SVG-20010904/DTD/svg10.dtd">
<svg version="1.0" xmlns="http://www.w3.org/2000/svg"
 width="394.000000pt" height="128.000000pt" viewBox="0 0 394.000000 128.000000"
 preserveAspectRatio="xMidYMid meet">
<metadata>
Created by potrace 1.16, written by Peter Selinger 2001-2019
</metadata>
<g transform="translate(0.000000,128.000000) scale(0.100000,-0.100000)"
fill="#000000" stroke="none">
<path d="M0 770 l0 -510 255 0 255 0 0 385 0 385 125 0 125 0 0 -385 0 -385
125 0 125 0 0 510 0 510 -505 0 -505 0 0 -510z"/>
<path d="M1220 640 l0 -640 250 0 250 0 0 130 0 130 250 0 250 0 0 510 0 510
-500 0 -500 0 0 -640z m750 130 l0 -260 -125 0 -125 0 0 260 0 260 125 0 125
0 0 -260z"/>
<path d="M2430 770 l0 -510 250 0 250 0 0 385 0 386 128 -3 127 -3 0 -383 0
-382 122 0 123 0 2 383 3 382 128 3 127 3 0 -386 0 -385 125 0 125 0 0 510 0
510 -755 0 -755 0 0 -510z"/>
</g>
</svg>
