<svg width="1080" height="1080" viewBox="0 0 1080 1080" fill="none" xmlns="http://www.w3.org/2000/svg">
<rect width="1080" height="1080" fill="white"/>
<path d="M540.781 323.39C452.419 323.39 454.724 185.135 543.598 190.256C627.606 194.864 624.021 323.39 540.781 323.39ZM539.244 300.603H545.647H551.282L556.404 299.067C559.849 297.285 563.037 295.046 565.881 292.41V292.41C569.112 289.863 572.112 287.036 574.845 283.962C579.048 278.264 581.935 271.706 583.297 264.76C584.066 259.84 584.066 254.83 583.297 249.91V249.91C582.682 246.776 581.826 243.695 580.736 240.693C579.196 237.317 577.398 234.064 575.357 230.964L572.796 228.404C570.796 226.14 568.658 224.002 566.393 222.003C563.644 219.554 560.638 217.408 557.429 215.603C552.583 213.863 547.467 212.996 542.318 213.042H535.402L533.866 218.675V213.042C529.053 213.746 524.383 215.216 520.035 217.395C517.725 218.609 515.501 219.977 513.376 221.491C510.453 223.563 507.862 226.066 505.692 228.916L508.509 234.036L505.18 229.428C502.828 232.42 500.85 235.687 499.289 239.157C497.875 242.618 496.844 246.224 496.216 249.91C495.701 254.076 495.701 258.289 496.216 262.455C496.762 266.131 497.706 269.737 499.033 273.209C500.486 276.497 502.199 279.665 504.155 282.681L506.204 284.986C508.256 287.209 510.483 289.263 512.864 291.13C515.638 293.256 518.645 295.06 521.828 296.507H523.108C528.084 299.137 533.616 300.542 539.244 300.603Z" fill="black"/>
<path d="M463.434 447.307C420.15 447.307 425.272 387.908 429.626 357.953C432.605 337.588 443.456 319.203 459.849 306.748C477.521 294.459 492.632 314.685 474.448 324.67C470.902 327.407 467.641 330.495 464.715 333.887L467.788 336.447V339.007L464.203 334.911C458.426 342.406 454.559 351.193 452.933 360.514V365.634C452.933 382.276 452.933 398.918 452.933 415.303V418.632L455.238 421.448H457.287V418.632L459.849 416.583V421.96H463.178H618.901H622.23H624.279H625.56L626.072 420.424V418.632V415.559C626.926 398.502 626.926 381.412 626.072 364.354C625.786 358.68 625.101 353.034 624.023 347.456C622.066 343.255 619.752 339.229 617.108 335.423L613.522 337.983L615.827 333.631C611.217 327.998 598.411 321.086 596.874 313.917C593.801 299.835 607.375 298.555 616.596 303.164C628.108 311.126 637.349 321.946 643.411 334.56C649.474 347.174 652.148 361.147 651.172 375.107C651.172 406.854 655.27 444.49 614.034 447.307C564.347 450.891 513.378 447.307 463.434 447.307Z" fill="black"/>
<path d="M276.977 765.547C188.359 765.547 190.92 627.037 279.795 632.157C363.803 636.766 360.217 765.547 276.977 765.547ZM276.977 742.505H283.124C286.795 741.928 290.399 740.984 293.881 739.688C300.999 736.54 307.306 731.812 312.322 725.863C316.017 721.084 318.677 715.589 320.132 709.726C321.588 703.864 321.806 697.763 320.774 691.812V691.812C320.159 688.678 319.303 685.596 318.213 682.595C316.673 679.218 314.875 675.966 312.834 672.866L310.785 670.561C308.786 668.297 306.647 666.16 304.382 664.161C301.424 662.037 298.247 660.234 294.906 658.784C291.443 657.37 287.836 656.34 284.149 655.712H279.795H271.343L270.062 661.344V655.712C265.241 656.38 260.566 657.851 256.231 660.064C253.922 661.278 251.697 662.647 249.572 664.161C246.685 666.365 244.025 668.852 241.632 671.585L244.706 676.706L241.376 672.097C239.08 675.127 237.106 678.388 235.485 681.826C234.071 685.288 233.041 688.894 232.412 692.58C232.029 696.753 232.029 700.952 232.412 705.125C233.165 708.781 234.192 712.376 235.485 715.878C236.884 719.112 238.6 722.2 240.608 725.095V725.095V726.375L247.011 732.776C250.308 735.08 253.826 737.053 257.512 738.664V738.664C260.602 739.755 263.77 740.611 266.988 741.225H275.697L276.977 742.505Z" fill="black"/>
<path d="M199.627 889.208C156.342 889.208 161.465 830.066 165.819 799.855C167.2 789.74 170.584 780.002 175.773 771.21C180.962 762.418 187.852 754.748 196.041 748.649C213.714 736.36 228.825 756.842 210.64 766.571C207.029 769.329 203.761 772.509 200.908 776.044L203.981 778.348V778.86L200.395 774.764C197.353 778.723 194.775 783.019 192.712 787.565C191.162 791.834 189.879 796.195 188.87 800.623V805.999V855.668V859.253H188.614L191.687 863.093H194.505H353.813H357.398L360.216 861.813L362.265 860.021V858.741V856.948V853.876C363.162 836.393 363.162 818.874 362.265 801.391V801.391C361.497 796.489 360.209 791.683 358.423 787.053C356.657 782.808 354.423 778.772 351.764 775.02L349.971 778.86L352.788 775.276C348.178 769.643 334.86 762.219 333.323 754.794C329.737 737.64 347.41 740.2 356.118 746.345C365.964 753.95 373.911 763.735 379.333 774.93C384.755 786.126 387.504 798.426 387.365 810.864C388.902 843.123 393.256 885.111 350.995 887.672C301.052 893.048 249.571 889.208 199.627 889.208Z" fill="black"/>
<path d="M804.588 765.547C716.226 765.547 718.531 627.037 807.406 632.157C891.414 636.766 887.828 765.547 804.588 765.547ZM803.308 742.505H809.455C813.125 741.928 816.729 740.984 820.212 739.688L825.334 737.128L829.944 734.312C833.034 731.695 835.943 728.872 838.653 725.863C840.782 722.999 842.586 719.908 844.031 716.646V716.646C845.287 713.481 846.314 710.229 847.105 706.917H842.751H847.361H844.799H847.361C848.005 702.76 848.005 698.529 847.361 694.372V694.372C846.78 691.23 845.923 688.146 844.799 685.155C843.259 681.778 841.461 678.526 839.421 675.426L837.372 672.866L830.969 666.721C828.01 664.597 824.833 662.795 821.492 661.344C818.03 659.931 814.422 658.901 810.735 658.272H806.381H799.466L797.929 663.905V658.272C793.116 658.976 788.447 660.445 784.098 662.624C781.789 663.838 779.564 665.207 777.439 666.721C774.633 668.93 772.059 671.417 769.756 674.146L772.573 679.266L769.243 674.658C766.947 677.688 764.973 680.948 763.353 684.387C760.171 691.713 759.107 699.784 760.279 707.685C760.825 711.361 761.77 714.967 763.096 718.438C764.92 722.817 767.427 726.879 770.524 730.471L776.927 736.616C779.735 738.62 782.738 740.336 785.891 741.737H787.172C790.733 743.063 794.424 744.008 798.185 744.553H803.308V742.505Z" fill="black"/>
<path d="M726.472 889.208C683.188 889.208 688.31 829.81 692.664 799.855C695.643 779.489 706.494 761.104 722.887 748.649C740.559 736.36 755.67 756.842 737.486 766.571C733.933 769.396 730.672 772.569 727.753 776.044L730.827 778.348V778.86L727.241 774.764C724.372 778.791 721.885 783.076 719.813 787.565C718.03 791.754 716.741 796.136 715.971 800.623V805.999V855.668V859.253L718.789 863.093H721.606H880.146H883.732L886.805 861.813L888.598 860.021V858.741V856.949V853.876C889.496 836.393 889.496 818.874 888.598 801.391V801.391C887.589 796.543 886.307 791.756 884.756 787.053C882.789 782.908 880.565 778.889 878.097 775.02L874.255 777.58L880.146 776.3C875.28 770.668 861.961 763.243 860.424 755.818C856.839 738.664 874.511 741.481 883.476 747.369C893.278 755.014 901.193 764.807 906.611 775.993C912.028 787.18 914.804 799.46 914.722 811.888C916.003 844.147 920.357 886.136 878.097 888.696C828.921 893.048 777.697 889.208 726.472 889.208Z" fill="black"/>
<path d="M540.525 637.022C520.292 637.022 529 575.575 529 564.31C529 553.045 520.548 491.343 540.525 491.855C560.503 492.367 552.051 550.485 552.051 562.006C552.051 573.527 560.759 637.022 540.525 637.022Z" fill="black"/>
<path d="M434.494 697.956C414.517 697.956 425.786 679.266 434.494 672.354C443.202 665.441 458.826 658.272 470.863 651.359L514.66 625.757C520.807 622.172 532.333 612.187 540.273 612.699C559.226 613.98 550.005 630.365 540.273 636.766C528.996 644.287 517.279 651.127 505.184 657.248L459.338 682.851C452.679 686.691 441.922 695.908 433.726 695.908L434.494 697.956Z" fill="black"/>
<path d="M646.307 697.956C637.855 697.956 627.354 688.739 620.695 684.899L576.898 659.296C564.86 652.383 551.285 646.239 540.528 638.302C529.771 630.365 521.063 614.747 540.528 612.699C547.956 612.699 558.713 621.404 564.348 624.732L607.632 650.335C620.438 657.504 633.245 664.161 646.307 672.353C659.369 680.546 666.797 697.956 646.307 697.956Z" fill="black"/>
</svg>
