<svg width="1080" height="1080" viewBox="0 0 1080 1080" fill="none" xmlns="http://www.w3.org/2000/svg">
<rect width="1080" height="1080" fill="white"/>
<g clip-path="url(#clip0)">
<path d="M866.442 825.642L742.782 675.888L852.738 650.766C856.526 649.928 859.94 647.886 862.469 644.945C864.999 642.004 866.507 638.323 866.768 634.453C867.201 630.651 866.384 626.812 864.442 623.516C862.499 620.22 859.536 617.645 856.001 616.182L555.498 482.415C552.368 480.996 548.902 480.488 545.497 480.95C542.092 481.412 538.886 482.824 536.247 485.025C533.698 487.256 531.782 490.12 530.693 493.328C529.605 496.536 529.382 499.974 530.048 503.296L605.418 823.684C606.376 827.442 608.445 830.822 611.356 833.384C614.267 835.945 617.884 837.568 621.732 838.04C625.218 837.907 628.597 836.796 631.482 834.835C634.366 832.873 636.641 830.14 638.046 826.947L684.052 722.869L807.712 872.623C813.942 880.411 823.011 885.405 832.924 886.506C842.837 887.608 852.781 884.726 860.569 878.496C868.357 872.266 873.351 863.197 874.452 853.285C875.554 843.373 872.672 833.429 866.442 825.642V825.642Z" fill="black"/>
<path d="M185.825 563.328C176.656 563.328 167.576 561.522 159.105 558.013C150.633 554.504 142.936 549.361 136.452 542.878C129.968 536.395 124.825 528.698 121.316 520.227C117.807 511.756 116.001 502.677 116.001 493.508V265.125C115.828 255.847 117.506 246.627 120.937 238.005C124.368 229.383 129.484 221.531 135.985 214.909C142.486 208.287 150.242 203.027 158.8 199.437C167.357 195.847 176.545 193.998 185.825 194H894.178C903.374 193.957 912.489 195.731 920.998 199.221C929.507 202.71 937.243 207.846 943.761 214.334C950.28 220.822 955.452 228.533 958.982 237.025C962.511 245.518 964.328 254.624 964.328 263.82V492.203C964.361 508.023 959.02 523.386 949.18 535.775C939.34 548.163 925.584 556.843 910.165 560.391L841.32 537.227H894.504C906.446 537.227 917.898 532.483 926.342 524.04C934.787 515.596 939.53 504.144 939.53 492.203V263.82C939.53 257.88 938.355 251.998 936.072 246.514C933.789 241.03 930.443 236.052 926.227 231.867C922.012 227.682 917.009 224.372 911.509 222.129C906.008 219.886 900.118 218.753 894.178 218.796H185.825C173.883 218.796 162.431 223.54 153.986 231.983C145.542 240.427 140.798 251.879 140.798 263.82V492.203C140.798 504.144 145.542 515.596 153.986 524.04C162.431 532.483 173.883 537.227 185.825 537.227H464.794L473.277 562.023L185.825 563.328Z" fill="black"/>
</g>
<defs>
<clipPath id="clip0">
<rect width="848" height="692" fill="white" transform="translate(116 194)"/>
</clipPath>
</defs>
</svg>
